<mxfile host="app.diagrams.net" modified="2024-10-24T07:39:53.833Z" agent="Mozilla/5.0 (Windows NT 10.0; Win64; x64) AppleWebKit/537.36 (KHTML, like Gecko) Chrome/130.0.0.0 Safari/537.36" version="24.3.1" etag="hWOq5DeXaxTYhK1CKZV7" type="github">
  <diagram name="Страница — 1" id="zd482rHluPKcxY-q0sS9">
    <mxGraphModel>
      <root>
        <mxCell id="0" />
        <mxCell id="1" parent="0" />
      </root>
    </mxGraphModel>
  </diagram>
</mxfile>
